<!--?xml version="1.0" standalone="no"?-->
              <svg id="sw-js-blob-svg" viewBox="0 0 100 100" xmlns="http://www.w3.org/2000/svg" version="1.1">
                    <defs> 
                        <linearGradient id="sw-gradient" x1="0" x2="1" y1="1" y2="0">
                            <stop id="stop1" stop-color="rgba(248, 117, 55, 1)" offset="0%"></stop>
                            <stop id="stop2" stop-color="rgba(251, 168, 31, 1)" offset="100%"></stop>
                        </linearGradient>
                    </defs>
                <path fill="url(#sw-gradient)" d="M28.3,-33.8C36.2,-27.1,41.8,-17.7,41.7,-8.7C41.6,0.2,35.8,8.8,29.8,15.3C23.8,21.8,17.5,26.2,10.3,29.3C3.1,32.4,-5,34.1,-13.2,32.7C-21.5,31.3,-29.9,26.7,-34.5,19.6C-39,12.4,-39.6,2.7,-35.9,-4.2C-32.1,-11.1,-24,-15,-17.3,-21.9C-10.6,-28.8,-5.3,-38.7,2.4,-41.6C10.2,-44.5,20.4,-40.5,28.3,-33.8Z" width="100%" height="100%" transform="translate(50 50)" stroke-width="0" style="transition: all 0.3s ease 0s;"></path>
              </svg>