<svg width="46" height="44" viewBox="0 0 46 44" fill="none" xmlns="http://www.w3.org/2000/svg">
<g id="akar-icons_github-fill">
<path id="Path" fill-rule="evenodd" clip-rule="evenodd" d="M22.6665 0C10.204 0 0.109985 10.094 0.109985 22.5565C0.109985 32.5377 6.56677 40.9682 15.533 43.9569C16.6608 44.1543 17.0837 43.4776 17.0837 42.8855C17.0837 42.3498 17.0555 40.5734 17.0555 38.6843C11.3882 39.7276 9.92205 37.3028 9.47092 36.034C9.21716 35.3855 8.11753 33.3836 7.15888 32.8479C6.3694 32.4249 5.24158 31.3817 7.13069 31.3535C8.90701 31.3253 10.1758 32.9888 10.5987 33.6655C12.6288 37.0772 15.8713 36.1185 17.1683 35.5264C17.3657 34.0603 17.9578 33.0734 18.6063 32.5095C13.5875 31.9456 8.34309 30.0001 8.34309 21.3722C8.34309 18.9192 9.21716 16.8892 10.6551 15.3102C10.4296 14.7463 9.64009 12.4343 10.8807 9.33274C10.8807 9.33274 12.7698 8.74063 17.0837 11.6448C18.8882 11.1373 20.8055 10.8835 22.7228 10.8835C24.6401 10.8835 26.5574 11.1373 28.362 11.6448C32.6759 8.71243 34.565 9.33274 34.565 9.33274C35.8056 12.4343 35.0161 14.7463 34.7906 15.3102C36.2285 16.8892 37.1026 18.891 37.1026 21.3722C37.1026 30.0283 31.83 31.9456 26.8112 32.5095C27.6289 33.2144 28.3338 34.5678 28.3338 36.6825C28.3338 39.6994 28.3056 42.1242 28.3056 42.8855C28.3056 43.4776 28.7285 44.1825 29.8563 43.9569C34.334 42.4452 38.225 39.5672 40.9816 35.7283C43.7383 31.8892 45.2216 27.2825 45.2229 22.5565C45.2229 10.094 35.1289 0 22.6665 0Z" fill="white"/>
</g>
</svg>
